<mxfile host="app.diagrams.net" modified="2024-04-18T14:12:53.687Z" agent="Mozilla/5.0 (Windows NT 10.0; Win64; x64) AppleWebKit/537.36 (KHTML, like Gecko) Chrome/124.0.0.0 Safari/537.36" etag="l0XHKJvWpsThi9yhbHAp" version="24.2.1" type="github">
  <diagram name="Page-1" id="eK_jWhtwVoanG8VLvDHz">
    <mxGraphModel dx="2614" dy="2118" grid="1" gridSize="10" guides="1" tooltips="1" connect="1" arrows="1" fold="1" page="1" pageScale="1" pageWidth="850" pageHeight="1100" math="0" shadow="0">
      <root>
        <mxCell id="0" />
        <mxCell id="1" parent="0" />
        <mxCell id="BK2hjJANdshmBqx3k7Pc-19" value="" style="rounded=0;whiteSpace=wrap;html=1;" vertex="1" parent="1">
          <mxGeometry x="-210" y="-770" width="1590" height="1170" as="geometry" />
        </mxCell>
        <mxCell id="84HNCTa0Rbt_0bMwYEw--6" value="C" style="fillColor=#F6F6F6;strokeColor=none;shadow=0;gradientColor=none;fontSize=14;align=left;spacing=10;fontColor=#717171;9E9E9E;verticalAlign=top;spacingTop=-4;fontStyle=0;spacingLeft=40;html=1;whiteSpace=wrap;" parent="1" vertex="1">
          <mxGeometry x="220" y="-740" width="880" height="1030" as="geometry" />
        </mxCell>
        <mxCell id="84HNCTa0Rbt_0bMwYEw--7" value="" style="shape=mxgraph.gcp2.google_cloud_platform;fillColor=#F6F6F6;strokeColor=none;shadow=0;gradientColor=none;" parent="84HNCTa0Rbt_0bMwYEw--6" vertex="1">
          <mxGeometry width="23" height="20" relative="1" as="geometry">
            <mxPoint x="20" y="10" as="offset" />
          </mxGeometry>
        </mxCell>
        <mxCell id="BK2hjJANdshmBqx3k7Pc-3" value="VPC" style="sketch=0;outlineConnect=0;gradientColor=none;html=1;whiteSpace=wrap;fontSize=12;fontStyle=0;shape=mxgraph.aws4.group;grIcon=mxgraph.aws4.group_vpc;strokeColor=#B6BABF;fillColor=none;verticalAlign=top;align=left;spacingLeft=30;fontColor=#B6BABF;dashed=0;" vertex="1" parent="84HNCTa0Rbt_0bMwYEw--6">
          <mxGeometry x="40" y="203.85" width="810" height="806.15" as="geometry" />
        </mxCell>
        <mxCell id="BK2hjJANdshmBqx3k7Pc-5" value="" style="strokeColor=#dddddd;shadow=1;strokeWidth=1;rounded=1;absoluteArcSize=1;arcSize=2;" vertex="1" parent="84HNCTa0Rbt_0bMwYEw--6">
          <mxGeometry x="70" y="500" width="730" height="480" as="geometry" />
        </mxCell>
        <mxCell id="BK2hjJANdshmBqx3k7Pc-6" value="Compute&#xa;Engine" style="editableCssRules=.*;html=1;fontColor=#999999;shape=image;verticalLabelPosition=middle;verticalAlign=middle;labelPosition=right;align=left;spacingLeft=20;part=1;points=[];imageAspect=0;image=data:image/svg+xml,PHN2ZyB4bWxucz0iaHR0cDovL3d3dy53My5vcmcvMjAwMC9zdmciIHhtbG5zOnY9Imh0dHBzOi8vdmVjdGEuaW8vbmFubyIgd2lkdGg9IjIwIiBoZWlnaHQ9IjIwIiB2aWV3Qm94PSIwIDAgMjAgMjAiPiYjeGE7CTxzdHlsZSB0eXBlPSJ0ZXh0L2NzcyI+JiN4YTsJLnN0MHtmaWxsOiM0Mjg1ZjQ7fSYjeGE7CS5zdDF7ZmlsbDojNjY5ZGY2O30mI3hhOwkuc3Qye2ZpbGw6I2FlY2JmYTt9JiN4YTsJPC9zdHlsZT4mI3hhOwk8cGF0aCBjbGFzcz0ic3QyIiBkPSJNNyA3aDZ2Nkg3eiIvPiYjeGE7CTxwYXRoIGNsYXNzPSJzdDEiIGQ9Ik05IDBoMnY0SDl6TTUgMGgydjRINXptOCAwaDJ2NGgtMnoiLz4mI3hhOwk8cGF0aCBjbGFzcz0ic3QwIiBkPSJNOSAxNmgydjRIOXptLTQgMGgydjRINXptOCAwaDJ2NGgtMnptMy01VjloNHYyem0wIDR2LTJoNHYyem0wLThWNWg0djJ6Ii8+JiN4YTsJPHBhdGggY2xhc3M9InN0MSIgZD0iTTAgMTFWOWg0djJ6bTAgNHYtMmg0djJ6bTAtOFY1aDR2MnoiLz4mI3hhOwk8cGF0aCBjbGFzcz0ic3QyIiBkPSJNMyAzdjE0aDE0VjN6bTEyIDEySDVWNWgxMHoiLz4mI3hhOwk8cGF0aCBjbGFzcz0ic3QxIiBkPSJNMTAgMTBsLTMgM2g2eiIvPiYjeGE7CTxwYXRoIGNsYXNzPSJzdDAiIGQ9Ik0xMyA3bC0zIDMgMyAzeiIvPiYjeGE7PC9zdmc+;" vertex="1" parent="BK2hjJANdshmBqx3k7Pc-5">
          <mxGeometry width="30" height="30" relative="1" as="geometry">
            <mxPoint x="15" y="15" as="offset" />
          </mxGeometry>
        </mxCell>
        <mxCell id="BK2hjJANdshmBqx3k7Pc-8" value="" style="rounded=0;whiteSpace=wrap;html=1;" vertex="1" parent="BK2hjJANdshmBqx3k7Pc-5">
          <mxGeometry x="30" y="272" width="670" height="128" as="geometry" />
        </mxCell>
        <mxCell id="BK2hjJANdshmBqx3k7Pc-9" value="&lt;font size=&quot;1&quot; style=&quot;&quot;&gt;&lt;b style=&quot;font-size: 20px;&quot;&gt;Harishop nomad&lt;/b&gt;&lt;/font&gt;" style="text;html=1;align=center;verticalAlign=middle;whiteSpace=wrap;rounded=0;strokeWidth=3;" vertex="1" parent="BK2hjJANdshmBqx3k7Pc-5">
          <mxGeometry x="220" y="387.0967741935484" width="300" height="77.4193548387097" as="geometry" />
        </mxCell>
        <mxCell id="BK2hjJANdshmBqx3k7Pc-12" value="VM 1" style="rounded=0;whiteSpace=wrap;html=1;fillColor=#dae8fc;strokeColor=#6c8ebf;" vertex="1" parent="BK2hjJANdshmBqx3k7Pc-5">
          <mxGeometry x="70" y="291.616" width="100" height="84.38400000000001" as="geometry" />
        </mxCell>
        <mxCell id="BK2hjJANdshmBqx3k7Pc-13" value="VM 2" style="rounded=0;whiteSpace=wrap;html=1;fillColor=#dae8fc;strokeColor=#6c8ebf;" vertex="1" parent="BK2hjJANdshmBqx3k7Pc-5">
          <mxGeometry x="295" y="291.616" width="100" height="84.38400000000001" as="geometry" />
        </mxCell>
        <mxCell id="BK2hjJANdshmBqx3k7Pc-14" value="VM 3" style="rounded=0;whiteSpace=wrap;html=1;fillColor=#dae8fc;strokeColor=#6c8ebf;" vertex="1" parent="BK2hjJANdshmBqx3k7Pc-5">
          <mxGeometry x="530" y="291.616" width="100" height="84.38400000000001" as="geometry" />
        </mxCell>
        <mxCell id="BK2hjJANdshmBqx3k7Pc-38" value="" style="edgeStyle=orthogonalEdgeStyle;rounded=0;orthogonalLoop=1;jettySize=auto;html=1;" edge="1" parent="BK2hjJANdshmBqx3k7Pc-5" source="BK2hjJANdshmBqx3k7Pc-15" target="BK2hjJANdshmBqx3k7Pc-8">
          <mxGeometry relative="1" as="geometry" />
        </mxCell>
        <mxCell id="BK2hjJANdshmBqx3k7Pc-15" value="Virtual Machine" style="rounded=0;whiteSpace=wrap;html=1;fillColor=#dae8fc;strokeColor=#6c8ebf;" vertex="1" parent="BK2hjJANdshmBqx3k7Pc-5">
          <mxGeometry x="50" y="90" width="120" height="80" as="geometry" />
        </mxCell>
        <mxCell id="BK2hjJANdshmBqx3k7Pc-16" value="&lt;b&gt;&lt;font style=&quot;font-size: 16px;&quot;&gt;Controller&lt;/font&gt;&lt;/b&gt;" style="text;html=1;align=center;verticalAlign=middle;whiteSpace=wrap;rounded=0;" vertex="1" parent="BK2hjJANdshmBqx3k7Pc-5">
          <mxGeometry x="70" y="170.00000000000003" width="80" height="32" as="geometry" />
        </mxCell>
        <mxCell id="BK2hjJANdshmBqx3k7Pc-17" value="" style="strokeColor=#dddddd;shadow=1;strokeWidth=1;rounded=1;absoluteArcSize=1;arcSize=2;" vertex="1" parent="84HNCTa0Rbt_0bMwYEw--6">
          <mxGeometry x="325" y="270" width="220" height="56" as="geometry" />
        </mxCell>
        <mxCell id="BK2hjJANdshmBqx3k7Pc-18" value="Network&#xa;Load&#xa;Balancer" style="sketch=0;dashed=0;connectable=0;html=1;fillColor=#757575;strokeColor=none;shape=mxgraph.gcp2.network_load_balancer;part=1;labelPosition=right;verticalLabelPosition=middle;align=left;verticalAlign=middle;spacingLeft=5;fontSize=12;" vertex="1" parent="BK2hjJANdshmBqx3k7Pc-17">
          <mxGeometry y="0.5" width="32" height="32" relative="1" as="geometry">
            <mxPoint x="5" y="-16" as="offset" />
          </mxGeometry>
        </mxCell>
        <mxCell id="BK2hjJANdshmBqx3k7Pc-20" value="" style="strokeColor=#dddddd;shadow=1;strokeWidth=1;rounded=1;absoluteArcSize=1;arcSize=2;" vertex="1" parent="84HNCTa0Rbt_0bMwYEw--6">
          <mxGeometry x="90" y="350" width="220" height="60" as="geometry" />
        </mxCell>
        <mxCell id="BK2hjJANdshmBqx3k7Pc-21" value="&lt;font color=&quot;#000000&quot;&gt;Mysql&lt;/font&gt;&lt;br&gt;Cloud SQL" style="editableCssRules=.*;html=1;fontColor=#999999;shape=image;verticalLabelPosition=middle;verticalAlign=middle;labelPosition=right;align=left;spacingLeft=20;part=1;points=[];imageAspect=0;image=data:image/svg+xml,PHN2ZyB4bWxucz0iaHR0cDovL3d3dy53My5vcmcvMjAwMC9zdmciIHhtbG5zOnY9Imh0dHBzOi8vdmVjdGEuaW8vbmFubyIgd2lkdGg9IjE0LjY1OTk5OTg0NzQxMjExIiBoZWlnaHQ9IjIwIiB2aWV3Qm94PSIwIDAgMTQuNjU5OTk5ODQ3NDEyMTEgMjAiPiYjeGE7CTxzdHlsZSB0eXBlPSJ0ZXh0L2NzcyI+JiN4YTsJLnN0MHtmaWxsOiM0Mjg1ZjQ7fSYjeGE7CS5zdDF7ZmlsbDojNjY5ZGY2O30mI3hhOwkuc3Qye2ZpbGw6I2FlY2JmYTt9JiN4YTsJPC9zdHlsZT4mI3hhOwk8c3R5bGU+JiN4YTsJCS5Ee2ZpbGwtcnVsZTpldmVub2RkfSYjeGE7CTwvc3R5bGU+JiN4YTsJPHBhdGggZD0iTTcuMzMgMTUuMzV2LTMuMDFMMCA4LjQ0djMuMDF6bTAgNC42NXYtMy4wMUwwIDEzLjA5djMuMDF6IiBjbGFzcz0ic3QyIEQiLz4mI3hhOwk8cGF0aCBkPSJNMTQuNjYgOC40NGwtNy4zMyAzLjl2My4wMWw3LjMzLTMuOXptMCA0LjY1bC03LjMzIDMuOVYyMGw3LjMzLTMuOXoiIGNsYXNzPSJzdDEgRCIvPiYjeGE7CTxwYXRoIGQ9Ik03LjMzIDB2My4wMWw3LjMzIDMuOVYzLjl6IiBjbGFzcz0ic3QwIEQiLz4mI3hhOwk8cGF0aCBkPSJNMCA2LjkxbDcuMzMtMy45VjBMMCAzLjl6IiBjbGFzcz0iRCBzdDEiLz4mI3hhOwk8cGF0aCBkPSJNNy4zMyAxMC43OVY3Ljc3TDAgMy44N3YzLjAyeiIgY2xhc3M9IkQgc3QyIi8+JiN4YTsJPHBhdGggZD0iTTE0LjY2IDMuODdsLTcuMzMgMy45djMuMDJsNy4zMy0zLjl6IiBjbGFzcz0iRCBzdDEiLz4mI3hhOzwvc3ZnPg==;" vertex="1" parent="BK2hjJANdshmBqx3k7Pc-20">
          <mxGeometry width="22" height="30" relative="1" as="geometry">
            <mxPoint x="19" y="15" as="offset" />
          </mxGeometry>
        </mxCell>
        <mxCell id="BK2hjJANdshmBqx3k7Pc-40" value="" style="edgeStyle=orthogonalEdgeStyle;rounded=0;orthogonalLoop=1;jettySize=auto;html=1;entryX=0.5;entryY=0;entryDx=0;entryDy=0;" edge="1" parent="84HNCTa0Rbt_0bMwYEw--6" target="BK2hjJANdshmBqx3k7Pc-8">
          <mxGeometry relative="1" as="geometry">
            <mxPoint x="435" y="330" as="sourcePoint" />
            <mxPoint x="440" y="454" as="targetPoint" />
          </mxGeometry>
        </mxCell>
        <mxCell id="BK2hjJANdshmBqx3k7Pc-42" value="" style="endArrow=classic;html=1;rounded=0;exitX=0.448;exitY=1.103;exitDx=0;exitDy=0;exitPerimeter=0;" edge="1" parent="84HNCTa0Rbt_0bMwYEw--6">
          <mxGeometry width="50" height="50" relative="1" as="geometry">
            <mxPoint x="188.55999999999995" y="410.00000000000006" as="sourcePoint" />
            <mxPoint x="189" y="584" as="targetPoint" />
          </mxGeometry>
        </mxCell>
        <mxCell id="BK2hjJANdshmBqx3k7Pc-47" value="&lt;b&gt;Google &lt;/b&gt;Cloud Platform" style="fillColor=#F6F6F6;strokeColor=none;shadow=0;gradientColor=none;fontSize=14;align=left;spacing=10;fontColor=#717171;9E9E9E;verticalAlign=top;spacingTop=-4;fontStyle=0;spacingLeft=40;html=1;whiteSpace=wrap;" vertex="1" parent="84HNCTa0Rbt_0bMwYEw--6">
          <mxGeometry width="300" height="59" as="geometry" />
        </mxCell>
        <mxCell id="BK2hjJANdshmBqx3k7Pc-48" value="" style="shape=mxgraph.gcp2.google_cloud_platform;fillColor=#F6F6F6;strokeColor=none;shadow=0;gradientColor=none;" vertex="1" parent="BK2hjJANdshmBqx3k7Pc-47">
          <mxGeometry width="23" height="20" relative="1" as="geometry">
            <mxPoint x="20" y="10" as="offset" />
          </mxGeometry>
        </mxCell>
        <mxCell id="BK2hjJANdshmBqx3k7Pc-44" value="" style="edgeStyle=orthogonalEdgeStyle;rounded=0;orthogonalLoop=1;jettySize=auto;html=1;" edge="1" parent="1" source="BK2hjJANdshmBqx3k7Pc-22" target="BK2hjJANdshmBqx3k7Pc-8">
          <mxGeometry relative="1" as="geometry">
            <mxPoint x="1120" y="160" as="targetPoint" />
          </mxGeometry>
        </mxCell>
        <mxCell id="BK2hjJANdshmBqx3k7Pc-22" value="Llama2 model&lt;div&gt;(CIVD Cloud)&lt;/div&gt;" style="rounded=0;whiteSpace=wrap;html=1;fillColor=#dae8fc;strokeColor=#6c8ebf;" vertex="1" parent="1">
          <mxGeometry x="1220" y="130" width="120" height="60" as="geometry" />
        </mxCell>
        <mxCell id="BK2hjJANdshmBqx3k7Pc-46" value="" style="edgeStyle=orthogonalEdgeStyle;rounded=0;orthogonalLoop=1;jettySize=auto;html=1;entryX=1.001;entryY=0.368;entryDx=0;entryDy=0;entryPerimeter=0;" edge="1" parent="1" source="BK2hjJANdshmBqx3k7Pc-23" target="BK2hjJANdshmBqx3k7Pc-8">
          <mxGeometry relative="1" as="geometry">
            <mxPoint x="1120" y="-10" as="targetPoint" />
          </mxGeometry>
        </mxCell>
        <mxCell id="BK2hjJANdshmBqx3k7Pc-23" value="SQL lite Saas&lt;div&gt;(Turso)&lt;/div&gt;" style="rounded=0;whiteSpace=wrap;html=1;fillColor=#dae8fc;strokeColor=#6c8ebf;" vertex="1" parent="1">
          <mxGeometry x="1220" y="-40" width="120" height="60" as="geometry" />
        </mxCell>
        <mxCell id="BK2hjJANdshmBqx3k7Pc-27" value="" style="rounded=0;whiteSpace=wrap;html=1;fillColor=#f5f5f5;fontColor=#333333;strokeColor=#666666;" vertex="1" parent="1">
          <mxGeometry x="-10" y="-26" width="180" height="226" as="geometry" />
        </mxCell>
        <mxCell id="BK2hjJANdshmBqx3k7Pc-28" value="&lt;font style=&quot;font-size: 14px;&quot;&gt;&lt;b&gt;Customer Application&lt;br&gt;(package web by assembly)&lt;/b&gt;&lt;/font&gt;&lt;div&gt;&lt;br/&gt;&lt;/div&gt;" style="rounded=0;whiteSpace=wrap;html=1;fillColor=#dae8fc;strokeColor=#6c8ebf;" vertex="1" parent="1">
          <mxGeometry x="20" y="-10" width="120" height="90" as="geometry" />
        </mxCell>
        <mxCell id="BK2hjJANdshmBqx3k7Pc-29" value="&lt;font style=&quot;font-size: 14px;&quot;&gt;&lt;b&gt;Meta Data&lt;br&gt;(OCI Format)&lt;/b&gt;&lt;/font&gt;" style="rounded=0;whiteSpace=wrap;html=1;fillColor=#dae8fc;strokeColor=#6c8ebf;" vertex="1" parent="1">
          <mxGeometry x="20" y="120" width="120" height="60" as="geometry" />
        </mxCell>
        <mxCell id="BK2hjJANdshmBqx3k7Pc-33" value="" style="edgeStyle=orthogonalEdgeStyle;rounded=0;orthogonalLoop=1;jettySize=auto;html=1;" edge="1" parent="1" source="BK2hjJANdshmBqx3k7Pc-31" target="BK2hjJANdshmBqx3k7Pc-32">
          <mxGeometry relative="1" as="geometry" />
        </mxCell>
        <mxCell id="BK2hjJANdshmBqx3k7Pc-31" value="&lt;font style=&quot;font-size: 14px;&quot;&gt;&lt;b&gt;Customer Application&lt;/b&gt;&lt;/font&gt;" style="rounded=0;whiteSpace=wrap;html=1;fillColor=#dae8fc;strokeColor=#6c8ebf;" vertex="1" parent="1">
          <mxGeometry x="-190" y="150" width="120" height="90" as="geometry" />
        </mxCell>
        <mxCell id="BK2hjJANdshmBqx3k7Pc-34" value="" style="edgeStyle=orthogonalEdgeStyle;rounded=0;orthogonalLoop=1;jettySize=auto;html=1;" edge="1" parent="1" source="BK2hjJANdshmBqx3k7Pc-32" target="BK2hjJANdshmBqx3k7Pc-28">
          <mxGeometry relative="1" as="geometry" />
        </mxCell>
        <mxCell id="BK2hjJANdshmBqx3k7Pc-32" value="&lt;font style=&quot;font-size: 14px;&quot;&gt;&lt;b&gt;Compile&lt;/b&gt;&lt;/font&gt;" style="rounded=0;whiteSpace=wrap;html=1;fillColor=#dae8fc;strokeColor=#6c8ebf;" vertex="1" parent="1">
          <mxGeometry x="-190" y="20" width="120" height="60" as="geometry" />
        </mxCell>
        <mxCell id="BK2hjJANdshmBqx3k7Pc-37" value="" style="endArrow=classic;html=1;rounded=0;exitX=1;exitY=0.5;exitDx=0;exitDy=0;entryX=-0.001;entryY=0.406;entryDx=0;entryDy=0;entryPerimeter=0;" edge="1" parent="1" source="BK2hjJANdshmBqx3k7Pc-27" target="BK2hjJANdshmBqx3k7Pc-8">
          <mxGeometry width="50" height="50" relative="1" as="geometry">
            <mxPoint x="210" y="100" as="sourcePoint" />
            <mxPoint x="260" y="50" as="targetPoint" />
          </mxGeometry>
        </mxCell>
      </root>
    </mxGraphModel>
  </diagram>
</mxfile>
